<?xml version="1.0" encoding="UTF-8"?>
<!DOCTYPE svg PUBLIC "-//W3C//DTD SVG 1.1//EN" "http://www.w3.org/Graphics/SVG/1.1/DTD/svg11.dtd">
<svg xmlns="http://www.w3.org/2000/svg" version="1.1" width="32px" height="32px" style="shape-rendering:geometricPrecision; text-rendering:geometricPrecision; image-rendering:optimizeQuality; fill-rule:evenodd; clip-rule:evenodd" xmlns:xlink="http://www.w3.org/1999/xlink">
<g><path style="opacity:1" fill="#f5f5f5" d="M 20.5,-0.5 C 23.5,-0.5 26.5,-0.5 29.5,-0.5C 28.7545,1.13602 29.0878,2.80269 30.5,4.5C 29.7251,6.30222 28.7251,6.96888 27.5,6.5C 27.1667,6.5 26.8333,6.5 26.5,6.5C 24.5,4.16667 22.5,1.83333 20.5,-0.5 Z"/></g>
<g><path style="opacity:1" fill="#dfdee1" d="M 6.5,1.5 C 6.5,1.16667 6.5,0.833333 6.5,0.5C 10.8333,0.5 15.1667,0.5 19.5,0.5C 19.1658,3.18802 19.8325,5.52135 21.5,7.5C 20.6618,7.84171 20.3284,8.50838 20.5,9.5C 20.5,10.5 20.5,11.5 20.5,12.5C 14.7389,12.2912 14.4055,11.4578 19.5,10C 17.9336,9.3918 16.6002,8.55847 15.5,7.5C 16.3764,7.63088 17.0431,7.29755 17.5,6.5C 16.2731,3.13247 14.1064,2.13247 11,3.5C 10.5172,4.44802 10.3505,5.44802 10.5,6.5C 10.1667,6.5 9.83333,6.5 9.5,6.5C 8.99346,5.14108 7.99346,4.14108 6.5,3.5C 8.92484,2.35068 8.92484,1.68402 6.5,1.5 Z"/></g>
<g><path style="opacity:1" fill="#3c3c3d" d="M 6.5,0.5 C 6.5,0.166667 6.5,-0.166667 6.5,-0.5C 11.1667,-0.5 15.8333,-0.5 20.5,-0.5C 22.5,1.83333 24.5,4.16667 26.5,6.5C 26.5,6.83333 26.5,7.16667 26.5,7.5C 24.8333,7.5 23.1667,7.5 21.5,7.5C 19.8325,5.52135 19.1658,3.18802 19.5,0.5C 15.1667,0.5 10.8333,0.5 6.5,0.5 Z"/></g>
<g><path style="opacity:1" fill="#f7f7f7" d="M 29.5,-0.5 C 30.1667,-0.5 30.8333,-0.5 31.5,-0.5C 31.5,10.1667 31.5,20.8333 31.5,31.5C 29.5,31.5 27.5,31.5 25.5,31.5C 25.7828,30.7109 26.2828,30.0442 27,29.5C 27.4997,21.8406 27.6664,14.1739 27.5,6.5C 28.7251,6.96888 29.7251,6.30222 30.5,4.5C 29.0878,2.80269 28.7545,1.13602 29.5,-0.5 Z"/></g>
<g><path style="opacity:1" fill="#615f63" d="M 15.5,7.5 C 15.3146,5.80422 14.4813,4.47088 13,3.5C 11.0073,5.40605 11.5073,6.57272 14.5,7C 12.8759,9.01854 11.5426,8.85187 10.5,6.5C 10.3505,5.44802 10.5172,4.44802 11,3.5C 14.1064,2.13247 16.2731,3.13247 17.5,6.5C 17.0431,7.29755 16.3764,7.63088 15.5,7.5 Z"/></g>
<g><path style="opacity:1" fill="#f7f7f9" d="M -0.5,-0.5 C 1.5,-0.5 3.5,-0.5 5.5,-0.5C 5.21719,0.28913 4.71719,0.955796 4,1.5C 3.33333,10.8333 3.33333,20.1667 4,29.5C 4.71719,30.0442 5.21719,30.7109 5.5,31.5C 4.83333,31.5 4.16667,31.5 3.5,31.5C 2.00697,28.5624 1.67364,25.5624 2.5,22.5C 2.18223,21.3527 1.51556,20.5194 0.5,20C 2.25001,18.2458 2.91668,16.0792 2.5,13.5C 1.5,13.5 0.5,13.5 -0.5,13.5C -0.5,8.83333 -0.5,4.16667 -0.5,-0.5 Z"/></g>
<g><path style="opacity:1" fill="#f7f5f8" d="M 15.5,7.5 C 16.6002,8.55847 17.9336,9.3918 19.5,10C 14.4055,11.4578 14.7389,12.2912 20.5,12.5C 21.552,12.3505 22.552,12.5172 23.5,13C 12.8333,14 12.8333,15 23.5,16C 21.1667,16.3333 18.8333,16.6667 16.5,17C 15.944,17.3826 15.6107,17.8826 15.5,18.5C 15.1583,19.3382 14.4916,19.6716 13.5,19.5C 13.5,19.1667 13.5,18.8333 13.5,18.5C 13.5864,16.5648 13.5864,14.5648 13.5,12.5C 12.7174,10.7118 11.3841,9.71182 9.5,9.5C 8.88432,8.79778 8.88432,7.79778 9.5,6.5C 9.83333,6.5 10.1667,6.5 10.5,6.5C 11.5426,8.85187 12.8759,9.01854 14.5,7C 11.5073,6.57272 11.0073,5.40605 13,3.5C 14.4813,4.47088 15.3146,5.80422 15.5,7.5 Z"/></g>
<g><path style="opacity:1" fill="#f1f1f3" d="M 6.5,1.5 C 8.92484,1.68402 8.92484,2.35068 6.5,3.5C 7.99346,4.14108 8.99346,5.14108 9.5,6.5C 8.88432,7.79778 8.88432,8.79778 9.5,9.5C 7.62111,10.9049 7.28778,12.5716 8.5,14.5C 7.75731,15.1818 7.09065,15.8485 6.5,16.5C 5.51388,12.03 5.18054,7.36329 5.5,2.5C 5.5,1.83333 5.83333,1.5 6.5,1.5 Z"/></g>
<g><path style="opacity:1" fill="#bebcc1" d="M 24.5,18.5 C 21.5,18.5 18.5,18.5 15.5,18.5C 15.6107,17.8826 15.944,17.3826 16.5,17C 18.8333,16.6667 21.1667,16.3333 23.5,16C 12.8333,15 12.8333,14 23.5,13C 22.552,12.5172 21.552,12.3505 20.5,12.5C 20.5,11.5 20.5,10.5 20.5,9.5C 21.7079,8.76589 23.0413,8.43255 24.5,8.5C 24.5,11.8333 24.5,15.1667 24.5,18.5 Z"/></g>
<g><path style="opacity:1" fill="#3a393c" d="M 9.5,9.5 C 11.3841,9.71182 12.7174,10.7118 13.5,12.5C 13.5864,14.5648 13.5864,16.5648 13.5,18.5C 10.6122,19.0102 8.27887,18.3435 6.5,16.5C 7.09065,15.8485 7.75731,15.1818 8.5,14.5C 7.28778,12.5716 7.62111,10.9049 9.5,9.5 Z"/></g>
<g><path style="opacity:1" fill="#606062" d="M 5.5,-0.5 C 5.83333,-0.5 6.16667,-0.5 6.5,-0.5C 6.5,-0.166667 6.5,0.166667 6.5,0.5C 6.5,0.833333 6.5,1.16667 6.5,1.5C 5.83333,1.5 5.5,1.83333 5.5,2.5C 4.16667,11.1667 4.16667,19.8333 5.5,28.5C 5.83333,29.1667 6.16667,29.8333 6.5,30.5C 6.5,30.8333 6.5,31.1667 6.5,31.5C 6.16667,31.5 5.83333,31.5 5.5,31.5C 5.21719,30.7109 4.71719,30.0442 4,29.5C 3.33333,20.1667 3.33333,10.8333 4,1.5C 4.71719,0.955796 5.21719,0.28913 5.5,-0.5 Z"/></g>
<g><path style="opacity:1" fill="#bcbcbe" d="M 5.5,2.5 C 5.18054,7.36329 5.51388,12.03 6.5,16.5C 8.27887,18.3435 10.6122,19.0102 13.5,18.5C 13.5,18.8333 13.5,19.1667 13.5,19.5C 11.4727,19.3379 9.4727,19.5045 7.5,20C 11.5,21 11.5,22 7.5,23C 11.2649,24.3772 10.9316,25.3772 6.5,26C 11.5945,27.4578 11.2611,28.2912 5.5,28.5C 4.16667,19.8333 4.16667,11.1667 5.5,2.5 Z"/></g>
<g><path style="opacity:1" fill="#c4c4c7" d="M 15.5,18.5 C 18.5,18.5 21.5,18.5 24.5,18.5C 22.0314,19.3171 19.3647,19.8171 16.5,20C 19.2263,20.1816 21.8929,20.6816 24.5,21.5C 20.5408,22.3265 16.5408,22.8265 12.5,23C 28.1712,23.8912 28.1712,25.0578 12.5,26.5C 12.5,27.1667 12.5,27.8333 12.5,28.5C 16.2984,29.4834 20.2984,29.8168 24.5,29.5C 18.69,30.4896 12.69,30.8229 6.5,30.5C 6.16667,29.8333 5.83333,29.1667 5.5,28.5C 11.2611,28.2912 11.5945,27.4578 6.5,26C 10.9316,25.3772 11.2649,24.3772 7.5,23C 11.5,22 11.5,21 7.5,20C 9.4727,19.5045 11.4727,19.3379 13.5,19.5C 14.4916,19.6716 15.1583,19.3382 15.5,18.5 Z"/></g>
<g><path style="opacity:1" fill="#f5f5f6" d="M -0.5,13.5 C 0.5,13.5 1.5,13.5 2.5,13.5C 2.91668,16.0792 2.25001,18.2458 0.5,20C 1.51556,20.5194 2.18223,21.3527 2.5,22.5C 1.67364,25.5624 2.00697,28.5624 3.5,31.5C 2.16667,31.5 0.833333,31.5 -0.5,31.5C -0.5,25.5 -0.5,19.5 -0.5,13.5 Z"/></g>
<g><path style="opacity:1" fill="#f3f3f5" d="M 21.5,7.5 C 23.1667,7.5 24.8333,7.5 26.5,7.5C 26.6663,14.5079 26.4996,21.5079 26,28.5C 25.6174,29.056 25.1174,29.3893 24.5,29.5C 20.2984,29.8168 16.2984,29.4834 12.5,28.5C 28.5,27.8333 28.5,27.1667 12.5,26.5C 28.1712,25.0578 28.1712,23.8912 12.5,23C 16.5408,22.8265 20.5408,22.3265 24.5,21.5C 21.8929,20.6816 19.2263,20.1816 16.5,20C 19.3647,19.8171 22.0314,19.3171 24.5,18.5C 24.5,15.1667 24.5,11.8333 24.5,8.5C 23.0413,8.43255 21.7079,8.76589 20.5,9.5C 20.3284,8.50838 20.6618,7.84171 21.5,7.5 Z"/></g>
<g><path style="opacity:1" fill="#929294" d="M 12.5,26.5 C 28.5,27.1667 28.5,27.8333 12.5,28.5C 12.5,27.8333 12.5,27.1667 12.5,26.5 Z"/></g>
<g><path style="opacity:1" fill="#4f4f51" d="M 26.5,6.5 C 26.8333,6.5 27.1667,6.5 27.5,6.5C 27.6664,14.1739 27.4997,21.8406 27,29.5C 26.2828,30.0442 25.7828,30.7109 25.5,31.5C 19.1667,31.5 12.8333,31.5 6.5,31.5C 6.5,31.1667 6.5,30.8333 6.5,30.5C 12.69,30.8229 18.69,30.4896 24.5,29.5C 25.1174,29.3893 25.6174,29.056 26,28.5C 26.4996,21.5079 26.6663,14.5079 26.5,7.5C 26.5,7.16667 26.5,6.83333 26.5,6.5 Z"/></g>
</svg>
