<?xml version="1.0" standalone="no"?>
<!DOCTYPE svg PUBLIC "-//W3C//DTD SVG 20010904//EN"
 "http://www.w3.org/TR/2001/REC-SVG-20010904/DTD/svg10.dtd">
<svg version="1.0" xmlns="http://www.w3.org/2000/svg"
 width="305.000000pt" height="65.000000pt" viewBox="0 0 305.000000 65.000000"
 preserveAspectRatio="xMidYMid meet">

<g transform="translate(0.000000,65.000000) scale(0.100000,-0.100000)"
fill="#000000" stroke="none">
<path d="M1128 375 c-1 -63 -2 -130 -2 -147 -1 -48 28 -45 32 4 2 23 9 39 20
43 17 6 22 2 68 -61 18 -23 25 -26 35 -17 10 10 5 22 -23 63 l-36 51 29 32
c32 34 34 42 18 53 -6 3 -33 -15 -60 -42 l-49 -48 0 92 c0 75 -3 92 -15 92
-12 0 -15 -20 -17 -115z"/>
<path d="M1567 480 c-70 -13 -137 -102 -137 -180 0 -50 42 -100 85 -100 51 0
119 50 97 72 -7 7 -20 5 -45 -11 -45 -28 -73 -27 -93 4 -20 31 -12 71 27 124
34 47 73 62 93 36 24 -33 47 5 30 49 -3 9 -9 15 -13 15 -3 -1 -23 -5 -44 -9z"/>
<path d="M124 469 c-3 -6 -9 -69 -12 -140 -4 -115 -3 -129 12 -129 13 0 16 11
16 55 0 52 1 55 25 55 91 0 137 91 74 144 -32 27 -101 36 -115 15z m94 -45
c12 -8 22 -19 22 -25 0 -18 -40 -49 -65 -49 -23 0 -25 4 -25 45 0 40 2 45 23
45 12 0 33 -7 45 -16z"/>
<path d="M845 460 c-8 -14 3 -30 21 -30 8 0 14 9 14 20 0 21 -24 28 -35 10z"/>
<path d="M2505 460 c-8 -14 3 -30 21 -30 8 0 14 9 14 20 0 21 -24 28 -35 10z"/>
<path d="M535 440 c-3 -5 -3 -19 0 -30 5 -17 2 -20 -25 -20 -25 0 -31 -4 -28
-17 2 -11 14 -19 31 -21 27 -3 27 -4 27 -78 0 -57 3 -74 14 -74 21 0 27 27 20
91 l-6 57 28 4 c42 4 46 38 5 38 -25 0 -30 4 -33 27 -3 28 -22 41 -33 23z"/>
<path d="M338 373 c-53 -33 -64 -107 -23 -148 26 -27 54 -31 86 -14 15 8 24 7
35 -2 22 -18 28 -3 15 40 -6 22 -9 58 -5 79 5 34 3 42 -14 51 -29 15 -63 13
-94 -6z m72 -73 c0 -55 -11 -67 -55 -56 -21 5 -25 12 -25 41 0 36 28 65 62 65
15 0 18 -9 18 -50z"/>
<path d="M665 358 c-3 -18 -5 -60 -3 -93 2 -45 7 -60 18 -60 11 0 16 15 18 62
2 51 7 65 25 78 31 22 47 19 47 -11 0 -37 24 -25 28 14 4 39 -17 51 -62 34
-20 -8 -34 -8 -40 -2 -17 17 -25 11 -31 -22z"/>
<path d="M840 295 c0 -78 3 -95 15 -95 12 0 15 17 15 95 0 78 -3 95 -15 95
-12 0 -15 -17 -15 -95z"/>
<path d="M963 368 c-63 -69 -54 -147 18 -163 34 -8 85 9 93 31 8 20 -9 26 -38
13 -59 -27 -106 20 -68 70 20 26 49 32 85 16 29 -12 21 30 -8 43 -38 17 -59
15 -82 -10z"/>
<path d="M1688 373 c-53 -33 -64 -107 -23 -148 26 -27 54 -31 86 -14 15 8 24
7 35 -2 22 -18 28 -3 15 40 -6 22 -9 58 -5 79 5 34 3 42 -14 51 -29 15 -63 13
-94 -6z m72 -73 c0 -55 -11 -67 -55 -56 -21 5 -25 12 -25 41 0 36 28 65 62 65
15 0 18 -9 18 -50z"/>
<path d="M1845 358 c-3 -18 -5 -60 -3 -93 2 -45 7 -60 18 -60 11 0 16 15 18
62 2 51 7 65 25 78 31 22 47 19 47 -11 0 -37 24 -25 28 14 4 39 -17 51 -62 34
-20 -8 -34 -8 -40 -2 -17 17 -25 11 -31 -22z"/>
<path d="M2048 373 c-53 -33 -64 -107 -23 -148 26 -27 54 -31 86 -14 15 8 24
7 35 -2 22 -18 28 -3 15 40 -6 22 -9 58 -5 79 5 34 3 42 -14 51 -29 15 -63 13
-94 -6z m72 -73 c0 -55 -11 -67 -55 -56 -21 5 -25 12 -25 41 0 36 28 65 62 65
15 0 18 -9 18 -50z"/>
<path d="M2209 383 c-4 -24 -6 -151 -2 -165 2 -10 11 -18 19 -18 10 0 14 13
14 48 0 40 5 53 30 77 35 34 38 28 42 -65 3 -54 6 -65 22 -68 17 -4 18 1 12
65 -7 67 -6 70 19 83 23 12 28 12 35 0 6 -8 10 -26 10 -40 0 -52 13 -100 26
-100 7 0 15 3 17 8 6 9 -16 153 -26 170 -10 15 -42 16 -69 1 -14 -8 -23 -8
-31 0 -17 17 -38 13 -64 -11 l-23 -21 0 21 c0 20 -28 33 -31 15z"/>
<path d="M2500 295 c0 -78 3 -95 15 -95 12 0 15 17 15 95 0 78 -3 95 -15 95
-12 0 -15 -17 -15 -95z"/>
<path d="M2623 368 c-63 -69 -54 -147 18 -163 34 -8 85 9 93 31 8 20 -9 26
-38 13 -59 -27 -106 20 -68 70 20 26 49 32 85 16 29 -12 21 30 -8 43 -38 17
-59 15 -82 -10z"/>
<path d="M2820 383 c-30 -11 -50 -48 -50 -95 0 -39 5 -50 26 -67 43 -34 86
-26 109 20 43 82 -10 169 -85 142z m61 -57 c17 -36 4 -74 -28 -82 -45 -12 -68
40 -37 84 20 29 52 28 65 -2z"/>
</g>
</svg>
